<svg width="34" height="34" viewBox="0 0 34 34" fill="none" xmlns="http://www.w3.org/2000/svg">
<rect width="34" height="34" rx="5" fill="#8324DB"/>
<path d="M16 14V11H13V9H16V6H18V9H21V11H18V14H16ZM12 27C11.45 27 10.9793 26.8043 10.588 26.413C10.196 26.021 10 25.55 10 25C10 24.45 10.196 23.979 10.588 23.587C10.9793 23.1957 11.45 23 12 23C12.55 23 13.0207 23.1957 13.412 23.587C13.804 23.979 14 24.45 14 25C14 25.55 13.804 26.021 13.412 26.413C13.0207 26.8043 12.55 27 12 27ZM22 27C21.45 27 20.9793 26.8043 20.588 26.413C20.196 26.021 20 25.55 20 25C20 24.45 20.196 23.979 20.588 23.587C20.9793 23.1957 21.45 23 22 23C22.55 23 23.021 23.1957 23.413 23.587C23.8043 23.979 24 24.45 24 25C24 25.55 23.8043 26.021 23.413 26.413C23.021 26.8043 22.55 27 22 27ZM12 22C11.25 22 10.675 21.6707 10.275 21.012C9.875 20.354 9.86667 19.7 10.25 19.05L11.6 16.6L8 9H6V7H9.275L13.525 16H20.55L24.425 9L26.175 9.95L22.3 16.95C22.1167 17.2833 21.875 17.5417 21.575 17.725C21.275 17.9083 20.9333 18 20.55 18H13.1L12 20H24V22H12Z" fill="white"/>
</svg>
