<svg width="408" height="321" viewBox="0 0 408 321" fill="none" xmlns="http://www.w3.org/2000/svg">
<circle opacity="0.5" cx="16.5" cy="16.5" r="16.5" fill="white"/>
<circle opacity="0.45" cx="16.5" cy="88.5" r="16.5" fill="white"/>
<circle opacity="0.4" cx="16.5" cy="160.5" r="16.5" fill="white"/>
<circle opacity="0.35" cx="16.5" cy="232.5" r="16.5" fill="white"/>
<circle opacity="0.3" cx="16.5" cy="304.5" r="16.5" fill="white"/>
<circle opacity="0.5" cx="91.5" cy="16.5" r="16.5" fill="white"/>
<circle opacity="0.45" cx="91.5" cy="88.5" r="16.5" fill="white"/>
<circle opacity="0.4" cx="91.5" cy="160.5" r="16.5" fill="white"/>
<circle opacity="0.35" cx="91.5" cy="232.5" r="16.5" fill="white"/>
<circle opacity="0.3" cx="91.5" cy="304.5" r="16.5" fill="white"/>
<circle opacity="0.5" cx="166.5" cy="16.5" r="16.5" fill="white"/> 
<circle opacity="0.45" cx="166.5" cy="88.5" r="16.5" fill="white"/>
<circle opacity="0.4" cx="166.5" cy="160.5" r="16.5" fill="white"/>
<circle opacity="0.35" cx="166.5" cy="232.5" r="16.5" fill="white"/>
<circle opacity="0.3" cx="166.5" cy="304.5" r="16.5" fill="white"/>
<circle opacity="0.5" cx="241.5" cy="16.5" r="16.5" fill="white"/>
<circle opacity="0.45" cx="241.5" cy="88.5" r="16.5" fill="white"/>
<circle opacity="0.4" cx="241.5" cy="160.5" r="16.5" fill="white"/>
<circle opacity="0.35" cx="241.5" cy="232.5" r="16.5" fill="white"/>
<circle opacity="0.3" cx="241.5" cy="304.5" r="16.5" fill="white"/>
<circle opacity="0.5" cx="316.5" cy="16.5" r="16.5" fill="white"/>
<circle opacity="0.45" cx="316.5" cy="88.5" r="16.5" fill="white"/>
<circle opacity="0.4" cx="316.5" cy="160.5" r="16.5" fill="white"/>
<circle opacity="0.35" cx="316.5" cy="232.5" r="16.5" fill="white"/>
<circle opacity="0.3" cx="316.5" cy="304.5" r="16.5" fill="white"/>
<circle opacity="0.5" cx="391.5" cy="16.5" r="16.5" fill="white"/>
<circle opacity="0.45" cx="391.5" cy="88.5" r="16.5" fill="white"/>
<circle opacity="0.4" cx="391.5" cy="160.5" r="16.5" fill="white"/>
<circle opacity="0.35" cx="391.5" cy="232.5" r="16.5" fill="white"/>
<circle opacity="0.3" cx="391.5" cy="304.5" r="16.5" fill="white"/>
</svg>
